<svg xmlns="http://www.w3.org/2000/svg" id="SvgjsSvg16254" width="4096" height="1962.7296896739745" version="1.1" xmlns:xlink="http://www.w3.org/1999/xlink" xmlns:svgjs="http://svgjs.com/svgjs"><defs id="SvgjsDefs16255"></defs><g id="SvgjsG16256" transform="translate(328, 328) scale(34.4)" opacity="1"><defs id="SvgjsDefs5973"></defs><g id="SvgjsG5974" transform="scale(0.40792814188221393)" opacity="1"><g id="SvgjsG5975" class="bEFrkIrua" transform="translate(-0.8549246836823298, -1.253699520121933) scale(0.9562945777557711)" light-content="false" non-strokable="false" fill="#b5213a"><path d="M45.656 68.688c1.39.629 2.848 1.055 4.332 1.344 1.488-.285 2.96-.715 4.356-1.332 8.124-3.606 13.585-12.898 13.585-23.113v-10.31L50 30.658l-17.93 4.62v10.31c0 10.223 5.461 19.508 13.587 23.102zm-.809-3.863c-1.144 1.422-3.14-1.285-4.097-2.028-.926-.96.523-2.394 1.465-1.433a17.735 17.735 0 0 0 2.386 2.039c.461.328.563.96.246 1.422zm15.367-11.63c-2.71 7.36-12.996 9.329-18.219 3.485-6.59-6.851-1.523-18.598 7.98-18.523 7.587-.183 13.185 8.07 10.239 15.04zm-21.043 7.071c-.328 0-.644-.164-.851-.45-2.703-4.015-4.2-9.066-4.2-14.23v-7.929c0-.46.317-.871.77-.992l14.855-3.82c.164-.043.348-.043.512 0l14.855 3.82c.45.121.77.531.77.992v7.93c-.016 1.34-2.044 1.34-2.051 0v-7.133l-13.832-3.566-13.832 3.566v7.133c0 4.765 1.363 9.406 3.851 13.074.473.652-.054 1.62-.847 1.605zm13.523-5.984c-1.503 5.015-3.878 5.015-5.398 0a9.025 9.025 0 0 1 5.398 0zM45.851 41.23c.144-.082.296-.153.449-.227a12.12 12.12 0 0 0-.883 2.152 8.894 8.894 0 0 1-1.187-.84 8.516 8.516 0 0 1 1.62-1.085zm1.445 2.777c1.516-5.02 3.898-5.024 5.398 0a9.025 9.025 0 0 1-5.398 0zm-2.367 9.055a11.23 11.23 0 0 0-2.102 1.414 8.808 8.808 0 0 1-1.7-4.313h3.485a20.79 20.79 0 0 0 .317 2.899zm-.32-4.95h-3.485a8.848 8.848 0 0 1 1.7-4.304 10.768 10.768 0 0 0 2.1 1.402 22.47 22.47 0 0 0-.316 2.902zm12.55-4.3a8.864 8.864 0 0 1 1.711 4.304h-3.492a21.535 21.535 0 0 0-.308-2.898 10.88 10.88 0 0 0 2.09-1.406zm-11.738 11.32c.246.8.543 1.515.883 2.152a8.443 8.443 0 0 1-2.07-1.313 9.668 9.668 0 0 1 1.187-.84zm9.157 0c.41.257.808.523 1.18.84a8.69 8.69 0 0 1-2.06 1.312 12.42 12.42 0 0 0 .88-2.152zm0-11.977a12.11 12.11 0 0 0-.883-2.153 8.612 8.612 0 0 1 2.058 1.313c-.363.316-.765.582-1.175.84zm-1.453 2.859c.101.656.175 1.352.203 2.102h-6.672c.043-.746.113-1.446.203-2.102a11 11 0 0 0 6.265 0zm-6.465 4.148h6.672a18.773 18.773 0 0 1-.204 2.11 11.188 11.188 0 0 0-6.25 0 19.581 19.581 0 0 1-.218-2.11zm8.719 0h3.492a8.847 8.847 0 0 1-1.711 4.313 11.17 11.17 0 0 0-2.09-1.414c.164-.903.27-1.875.309-2.899zM23.688 27.921v44.16a4.224 4.224 0 0 0 4.23 4.223h44.16a4.225 4.225 0 0 0 4.223-4.223v-44.16a4.223 4.223 0 0 0-4.223-4.222H27.922a4.228 4.228 0 0 0-4.234 4.222zm6.332 6.555c0-.46.316-.871.769-.992l18.953-4.879c.164-.043.348-.043.512 0l18.953 4.879c.449.121.77.531.77.992v11.105c-.079 12.977-8.118 24.781-20.196 26.496-11.848-2.14-19.688-13.559-19.762-26.492V34.476zM26.137 13.39c.398 0 .777-.082 1.129-.234l3.914 3.902v4.797h2.05V16.64a1.02 1.02 0 0 0-.308-.726l-4.223-4.223c.805-1.77-.61-3.918-2.562-3.871-3.688.09-3.688 5.48 0 5.57zm0-3.523c.96.004.96 1.469 0 1.476-.977-.004-.977-1.472 0-1.476zm48.402-6.465c-1.961-.043-3.38 2.105-2.57 3.883l-4.899 4.898c-.184.195-.297.45-.297.719v8.953h2.05v-8.523l4.59-4.59c4.212 1.527 5.598-5.04 1.126-5.34zm0 3.523c-.414-.008-.364-.191-.614-.347-.347-.461.047-1.145.614-1.13.965.005.965 1.477 0 1.477zM42.12 21.855h-2.05V9.898c0-.562.46-1.023 1.023-1.023s1.024.46 1.024 1.023zm-2.047-16.55c0-1.36 2.023-1.38 2.05-.02-.003 1.336-2.038 1.36-2.05.02zm17.8 5.956c-.003-1.36 2.024-1.379 2.052-.02-.004 1.337-2.043 1.36-2.051.02zm2.056 4.516v6.074h-2.051v-6.074c.02-1.344 2.023-1.344 2.05 0zM48.977 6.69v15.164h2.05L51.023 6.69C53.832 5.6 53.051 1.307 50 1.311c-3.063 0-3.848 4.29-1.023 5.379zM50 3.363c.969 0 .96 1.48 0 1.484-.973-.008-.98-1.484 0-1.484zM31.18 82.94l-3.914 3.902c-1.781-.828-3.973.582-3.926 2.551.285 4.441 6.84 3.117 5.36-1.086l4.222-4.223a1.02 1.02 0 0 0 .309-.726v-5.215H31.18zm-5.043 7.191c-.977-.004-.977-1.472 0-1.476.965.008.965 1.472 0 1.476zm13.934-.03V78.143h2.05V90.1c-.023 1.344-2.023 1.348-2.05 0zm2.055 4.593c0 1.36-2.024 1.379-2.051.02 0-1.337 2.039-1.36 2.05-.02zm17.797-5.953c.004 1.36-2.024 1.379-2.051.02.004-1.34 2.043-1.364 2.05-.02zM57.88 78.144h2.05v6.074c0 .562-.46 1.023-1.023 1.023a1.02 1.02 0 0 1-1.023-1.023zm-6.856 15.164V78.144h-2.05v15.164c-2.825 1.094-2.04 5.379 1.023 5.379 3.058.004 3.836-4.293 1.027-5.38zm-1.023 3.328c-.98-.004-.973-1.477 0-1.485.96.008.968 1.485 0 1.485zm24.539-5.613a2.79 2.79 0 0 0-1.125.234l-4.59-4.59v-8.523h-2.05v8.953c0 .265.112.523.296.719l4.898 4.898c-.804 1.777.614 3.926 2.57 3.883 3.676-.098 3.673-5.477 0-5.574zm0 3.523c-.57.016-.965-.664-.614-1.129.254-.156.2-.34.614-.348.965.004.965 1.477 0 1.477zm13.699-61.289l4.898-4.898c4.211 1.484 5.543-5.059 1.098-5.36-1.98-.043-3.399 2.149-2.551 3.926l-4.59 4.59h-8.949v2.05h9.363c.278 0 .535-.113.73-.308zm5.992-8.207c.96.004.969 1.484 0 1.484-.328.02-.387-.207-.613-.34-.348-.457.039-1.16.613-1.144zm-3.719 35.207H78.145v-2.05h12.367c1.344.003 1.344 2.05 0 2.05zm5.649-1.023c-.004 1.343-2.051 1.335-2.06 0 .017-1.352 2.036-1.344 2.06 0zM89.175 40.41c1.34.003 1.34 2.043 0 2.05-1.348-.004-1.355-2.062 0-2.05zm-4.535 2.05h-6.496v-2.05h6.496c1.348.023 1.348 2.023 0 2.05zm5.176 28.953c-.39 0-.758.07-1.086.215l-4.223-4.223a1.06 1.06 0 0 0-.726-.296h-5.637v2.05h5.215l3.902 3.903c-.844 1.78.562 3.976 2.55 3.933 3.673-.097 3.68-5.488.005-5.582zm0 3.536c-.973-.008-.98-1.48 0-1.485.968 0 .96 1.477 0 1.485zm6.496-27.406c-1.168 0-2.172.738-2.582 1.773l-15.586-.004v2.05h15.582c1.094 2.817 5.386 2.02 5.379-1.023a2.793 2.793 0 0 0-2.793-2.796zm0 3.53c-.969-.003-.957-1.476 0-1.484.972.008.98 1.485 0 1.485zm-80.82 16.333l-4.223 4.222c-4.21-1.449-5.523 5.07-1.086 5.368 1.973.043 3.39-2.16 2.54-3.934l3.913-3.902h5.204v-2.051h-5.637a1.03 1.03 0 0 0-.711.297zm-5.309 7.543c-.96-.004-.969-1.485 0-1.485.973 0 .961 1.477 0 1.485zm-.707-16.742h12.367v2.05H9.477c-1.344-.019-1.348-2.027 0-2.05zM5.9 59.234c-.016 1.356-2.039 1.344-2.059 0 .004-1.344 2.047-1.332 2.06 0zm4.922-16.773c-1.34-.004-1.34-2.043 0-2.05 1.348.003 1.355 2.062 0 2.05zm4.54-2.05h6.483v2.05H15.36c-1.34-.008-1.344-2.047 0-2.05zM3.68 47.542A2.8 2.8 0 0 0 .894 50.34c-.004 3.055 4.293 3.832 5.379 1.023h15.574v-2.05H6.27a2.79 2.79 0 0 0-2.59-1.77zm0 3.531c-.97 0-.962-1.48 0-1.484.972.008.98 1.48 0 1.484zm4.64-24.148c.825-1.775-.577-3.968-2.55-3.925-4.445.301-3.113 6.844 1.098 5.36l4.898 4.898c.184.196.45.309.719.309h9.363v-2.051h-8.934zM6.375 26.2a.477.477 0 0 0-.214.215c-.461.328-1.145-.047-1.125-.614.082-1.297 1.992-.703 1.34.399z"></path></g><g id="SvgjsG5976" class="text" transform="translate(171.4016337240751, 64.70208555385564) scale(1)" light-content="false" fill="#b5213a"><path d="M-37.03 -35.95L-46.99 -35.95L-46.99 -16.79L-62.86 -35.95L-71.23 -35.95L-71.23 0L-61.26 0L-61.26 -19.15L-45.4 0L-37.03 0Z M-22.18 -27.88L-22.18 0L-12.02 0L-12.02 -27.88L-1.03 -27.88L-1.03 -35.95L-33.23 -35.95L-33.23 -27.88Z M2.77 -35.95L2.77 0L19.77 0C23.71 0 27.2 -0.74 30.25 -2.21C33.29 -3.68 35.66 -5.77 37.33 -8.47C39.01 -11.18 39.85 -14.34 39.85 -17.97C39.85 -21.6 39.01 -24.77 37.33 -27.47C35.66 -30.18 33.29 -32.27 30.25 -33.74C27.2 -35.21 23.71 -35.95 19.77 -35.95ZM19.36 -8.11L12.94 -8.11L12.94 -27.83L19.36 -27.83C22.44 -27.83 24.91 -26.96 26.78 -25.21C28.65 -23.47 29.58 -21.05 29.58 -17.97C29.58 -14.89 28.65 -12.48 26.78 -10.73C24.91 -8.99 22.44 -8.11 19.36 -8.11Z M49.35 -0.36C52.09 0.36 54.91 0.72 57.82 0.72C61.25 0.72 64.16 0.2 66.55 -0.85C68.95 -1.89 70.75 -3.29 71.95 -5.03C73.14 -6.78 73.74 -8.73 73.74 -10.89C73.74 -13.39 73.08 -15.36 71.77 -16.82C70.45 -18.27 68.89 -19.33 67.09 -20C65.3 -20.67 63.03 -21.29 60.29 -21.88C57.86 -22.39 56.09 -22.89 55 -23.37C53.9 -23.84 53.36 -24.56 53.36 -25.52C53.36 -26.48 53.82 -27.26 54.74 -27.86C55.67 -28.46 57.14 -28.76 59.16 -28.76C62.38 -28.76 65.7 -27.83 69.12 -25.98L72.25 -33.53C70.51 -34.56 68.49 -35.34 66.19 -35.87C63.9 -36.4 61.57 -36.67 59.21 -36.67C55.75 -36.67 52.83 -36.15 50.45 -35.13C48.07 -34.1 46.29 -32.7 45.09 -30.94C43.89 -29.18 43.29 -27.2 43.29 -25.01C43.29 -22.51 43.94 -20.52 45.24 -19.05C46.54 -17.58 48.1 -16.51 49.92 -15.84C51.73 -15.17 53.99 -14.55 56.69 -13.97C59.16 -13.42 60.95 -12.9 62.06 -12.4C63.17 -11.91 63.73 -11.14 63.73 -10.12C63.73 -8.17 61.78 -7.19 57.87 -7.19C55.82 -7.19 53.73 -7.51 51.61 -8.17C49.49 -8.82 47.62 -9.67 46.01 -10.73L42.67 -3.24C44.39 -2.04 46.61 -1.08 49.35 -0.36Z"></path></g></g></g></svg>